<?xml version="1.0" encoding="UTF-8"?>
<svg xmlns="http://www.w3.org/2000/svg" xmlns:xlink="http://www.w3.org/1999/xlink" width="263.622pt" height="42.5197pt" viewBox="0 0 263.622 42.5197">
<defs>
<g>
<g id="glyph-0-0">
<path d="M 0.75 0 L 3.375 0 L 3.375 -2.515625 L 4.09375 -3.3125 L 6.203125 0 L 9.46875 0 L 5.875 -5.1875 L 8.96875 -8.515625 L 5.734375 -8.515625 L 3.390625 -5.578125 L 3.375 -5.578125 L 3.375 -8.515625 L 0.75 -8.515625 Z M 0.75 0 "/>
</g>
<g id="glyph-0-1">
<path d="M 4.40625 -2.203125 C 4.375 -1.5625 3.953125 -1.234375 3.421875 -1.234375 C 3 -1.234375 2.6875 -1.53125 2.6875 -1.8125 C 2.6875 -2.234375 2.953125 -2.359375 3.484375 -2.484375 C 3.796875 -2.546875 4.125 -2.640625 4.40625 -2.78125 Z M 6.671875 -3.921875 C 6.671875 -5.109375 6.703125 -6.34375 3.75 -6.34375 C 3.015625 -6.34375 2.234375 -6.265625 1.640625 -5.984375 C 1.03125 -5.703125 0.59375 -5.1875 0.5625 -4.3125 L 2.75 -4.3125 C 2.765625 -4.578125 2.90625 -4.953125 3.640625 -4.953125 C 4.015625 -4.953125 4.40625 -4.796875 4.40625 -4.375 C 4.40625 -3.984375 4.09375 -3.890625 3.765625 -3.828125 C 2.5625 -3.59375 0.28125 -3.671875 0.28125 -1.71875 C 0.28125 -0.421875 1.265625 0.15625 2.453125 0.15625 C 3.21875 0.15625 3.953125 -0.015625 4.453125 -0.578125 L 4.46875 -0.578125 C 4.453125 -0.421875 4.5 -0.171875 4.546875 0 L 6.96875 0 C 6.703125 -0.390625 6.671875 -0.921875 6.671875 -1.390625 Z M 6.671875 -3.921875 "/>
</g>
<g id="glyph-0-2">
<path d="M 0.640625 0 L 3 0 L 3 -3.265625 C 3 -4.25 3.546875 -4.453125 3.953125 -4.453125 C 4.640625 -4.453125 4.71875 -3.953125 4.71875 -3.25 L 4.71875 0 L 7.078125 0 L 7.078125 -4.25 C 7.078125 -5.65625 6.0625 -6.34375 4.953125 -6.34375 C 4.015625 -6.34375 3.390625 -6.015625 2.9375 -5.40625 L 2.921875 -5.40625 L 2.921875 -6.1875 L 0.640625 -6.1875 Z M 0.640625 0 "/>
</g>
<g id="glyph-0-3">
<path d="M 3.484375 -8.078125 L 1.125 -8.078125 L 1.125 -6.1875 L 0.078125 -6.1875 L 0.078125 -4.734375 L 1.125 -4.734375 L 1.125 -1.78125 C 1.125 -0.078125 2.234375 0.078125 3.234375 0.078125 C 3.734375 0.078125 4.265625 0 4.75 0 L 4.75 -1.78125 C 4.5625 -1.765625 4.390625 -1.75 4.203125 -1.75 C 3.609375 -1.75 3.484375 -2 3.484375 -2.578125 L 3.484375 -4.734375 L 4.75 -4.734375 L 4.75 -6.1875 L 3.484375 -6.1875 Z M 3.484375 -8.078125 "/>
</g>
<g id="glyph-0-4">
<path d="M 7.125 -3.09375 C 7.125 -4.8125 6.078125 -6.34375 3.75 -6.34375 C 1.4375 -6.34375 0.375 -4.8125 0.375 -3.09375 C 0.375 -1.390625 1.4375 0.15625 3.75 0.15625 C 6.078125 0.15625 7.125 -1.390625 7.125 -3.09375 Z M 4.765625 -3.09375 C 4.765625 -2.4375 4.65625 -1.5625 3.75 -1.5625 C 2.859375 -1.5625 2.734375 -2.4375 2.734375 -3.09375 C 2.734375 -3.75 2.859375 -4.625 3.75 -4.625 C 4.65625 -4.625 4.765625 -3.75 4.765625 -3.09375 Z M 4.765625 -3.09375 "/>
</g>
<g id="glyph-0-5">
<path d="M 6.359375 -4.390625 C 6.3125 -5.96875 4.703125 -6.34375 3.359375 -6.34375 C 2.125 -6.34375 0.4375 -5.9375 0.4375 -4.375 C 0.4375 -3.3125 1.171875 -2.734375 2.96875 -2.4375 C 4.0625 -2.234375 4.265625 -2.140625 4.265625 -1.78125 C 4.265625 -1.421875 3.78125 -1.296875 3.46875 -1.296875 C 3.1875 -1.296875 2.953125 -1.375 2.84375 -1.484375 C 2.65625 -1.640625 2.5625 -1.8125 2.546875 -2.03125 L 0.296875 -2.03125 C 0.328125 -0.421875 1.9375 0.15625 3.390625 0.15625 C 4.890625 0.15625 6.53125 -0.3125 6.53125 -2.03125 C 6.53125 -3.046875 5.84375 -3.5 5.0625 -3.75 C 4.265625 -4.015625 3.375 -4.0625 2.984375 -4.234375 C 2.84375 -4.296875 2.703125 -4.375 2.703125 -4.546875 C 2.703125 -4.953125 3.09375 -5.03125 3.421875 -5.03125 C 3.609375 -5.03125 3.796875 -4.96875 3.953125 -4.859375 C 4.09375 -4.75 4.203125 -4.59375 4.21875 -4.390625 Z M 6.359375 -4.390625 "/>
</g>
<g id="glyph-0-6">
<path d="M 6.875 -3.84375 C 6.734375 -5.546875 5.359375 -6.34375 3.734375 -6.34375 C 1.875 -6.34375 0.375 -5.046875 0.375 -3.09375 C 0.375 -1.125 1.875 0.15625 3.734375 0.15625 C 4.5625 0.15625 5.3125 -0.078125 5.875 -0.53125 C 6.453125 -0.984375 6.84375 -1.640625 6.953125 -2.46875 L 4.703125 -2.46875 C 4.65625 -1.984375 4.296875 -1.5625 3.78125 -1.5625 C 2.875 -1.5625 2.734375 -2.34375 2.734375 -3.09375 C 2.734375 -3.84375 2.875 -4.625 3.78125 -4.625 C 4.03125 -4.625 4.234375 -4.546875 4.375 -4.421875 C 4.53125 -4.296875 4.609375 -4.09375 4.640625 -3.84375 Z M 6.875 -3.84375 "/>
</g>
<g id="glyph-0-7">
<path d="M 0.640625 0 L 3 0 L 3 -3.265625 C 3 -4.25 3.546875 -4.453125 3.953125 -4.453125 C 4.640625 -4.453125 4.71875 -3.953125 4.71875 -3.25 L 4.71875 0 L 7.078125 0 L 7.078125 -4.25 C 7.078125 -5.65625 6.0625 -6.34375 4.953125 -6.34375 C 3.953125 -6.34375 3.4375 -6 3.03125 -5.515625 L 3 -5.515625 L 3 -8.515625 L 0.640625 -8.515625 Z M 0.640625 0 "/>
</g>
<g id="glyph-0-8">
<path d="M 7.078125 -6.1875 L 4.71875 -6.1875 L 4.71875 -2.921875 C 4.71875 -1.9375 4.1875 -1.734375 3.78125 -1.734375 C 3.09375 -1.734375 3 -2.234375 3 -2.9375 L 3 -6.1875 L 0.640625 -6.1875 L 0.640625 -1.9375 C 0.640625 -0.53125 1.65625 0.15625 2.765625 0.15625 C 3.703125 0.15625 4.34375 -0.171875 4.78125 -0.78125 L 4.796875 -0.78125 L 4.796875 0 L 7.078125 0 Z M 7.078125 -6.1875 "/>
</g>
<g id="glyph-0-9">
<path d="M 0.6875 0 L 3.046875 0 L 3.046875 -8.515625 L 0.6875 -8.515625 Z M 0.6875 0 "/>
</g>
<g id="glyph-0-10">
<path d="M 2.640625 -3.796875 C 2.75 -4.453125 3.15625 -4.828125 3.859375 -4.828125 C 4.46875 -4.828125 4.90625 -4.359375 4.90625 -3.796875 Z M 7.171875 -2.5625 C 7.171875 -4.96875 6.109375 -6.34375 3.640625 -6.34375 C 1.6875 -6.34375 0.375 -4.875 0.375 -3.078125 C 0.375 -1.015625 1.875 0.15625 3.84375 0.15625 C 5.25 0.15625 6.5625 -0.46875 7.03125 -1.796875 L 4.828125 -1.796875 C 4.640625 -1.5 4.21875 -1.359375 3.84375 -1.359375 C 3.09375 -1.359375 2.6875 -1.859375 2.640625 -2.5625 Z M 7.171875 -2.5625 "/>
</g>
<g id="glyph-0-11">
</g>
<g id="glyph-0-12">
<path d="M 0.140625 -2.859375 C 0.171875 -0.140625 2.921875 0.203125 3.890625 0.203125 C 5.78125 0.203125 7.828125 -0.515625 7.828125 -2.734375 C 7.828125 -4.296875 6.625 -4.859375 5.421875 -5.1875 C 4.21875 -5.515625 3 -5.65625 2.953125 -6.265625 C 2.953125 -6.734375 3.546875 -6.828125 3.90625 -6.828125 C 4.15625 -6.828125 4.453125 -6.765625 4.671875 -6.609375 C 4.890625 -6.46875 5.03125 -6.265625 4.984375 -5.9375 L 7.46875 -5.9375 C 7.390625 -8.015625 5.765625 -8.71875 3.90625 -8.71875 C 2.15625 -8.71875 0.484375 -7.875 0.484375 -5.90625 C 0.484375 -4.1875 2.015625 -3.8125 3.359375 -3.4375 C 4.828125 -3.015625 5.203125 -2.890625 5.203125 -2.453125 C 5.203125 -1.828125 4.546875 -1.6875 4.109375 -1.6875 C 3.625 -1.6875 3.046875 -1.78125 2.859375 -2.296875 C 2.796875 -2.453125 2.765625 -2.640625 2.765625 -2.859375 Z M 0.140625 -2.859375 "/>
</g>
<g id="glyph-0-13">
<path d="M 7.078125 -8.515625 L 4.71875 -8.515625 L 4.71875 -5.515625 L 4.703125 -5.515625 C 4.34375 -6.03125 3.703125 -6.34375 3 -6.34375 C 0.9375 -6.34375 0.375 -4.578125 0.375 -3.125 C 0.375 -1.578125 1.21875 0.15625 2.96875 0.15625 C 4.125 0.15625 4.484375 -0.28125 4.78125 -0.671875 L 4.796875 -0.671875 L 4.796875 0 L 7.078125 0 Z M 4.796875 -3.09375 C 4.796875 -2.359375 4.609375 -1.5625 3.765625 -1.5625 C 2.921875 -1.5625 2.734375 -2.359375 2.734375 -3.09375 C 2.734375 -3.828125 2.921875 -4.625 3.765625 -4.625 C 4.609375 -4.625 4.796875 -3.828125 4.796875 -3.09375 Z M 4.796875 -3.09375 "/>
</g>
<g id="glyph-0-14">
<path d="M 1.03125 0 L 3.390625 0 L 3.390625 -4.734375 L 4.59375 -4.734375 L 4.59375 -6.1875 L 3.34375 -6.1875 C 3.3125 -6.765625 3.5 -6.921875 4.078125 -6.921875 C 4.265625 -6.921875 4.453125 -6.859375 4.65625 -6.84375 L 4.65625 -8.46875 C 4.296875 -8.46875 3.953125 -8.515625 3.59375 -8.515625 C 2.640625 -8.515625 2.03125 -8.4375 1.53125 -7.921875 C 1.078125 -7.46875 1.015625 -6.796875 1.03125 -6.1875 L 0.078125 -6.1875 L 0.078125 -4.734375 L 1.03125 -4.734375 Z M 1.03125 0 "/>
</g>
<g id="glyph-1-0">
<path d="M 1.328125 0 L 6.46875 0 L 6.46875 -6.359375 L 13.125 -6.359375 L 13.125 -10.328125 L 6.46875 -10.328125 L 6.46875 -12.40625 L 14.21875 -12.40625 L 14.21875 -16.671875 L 1.328125 -16.671875 Z M 1.328125 0 "/>
</g>
<g id="glyph-1-1">
<path d="M 1.359375 0 L 5.984375 0 L 5.984375 -12.125 L 1.359375 -12.125 Z M 5.984375 -16.671875 L 1.359375 -16.671875 L 1.359375 -13.4375 L 5.984375 -13.4375 Z M 5.984375 -16.671875 "/>
</g>
<g id="glyph-1-2">
<path d="M 1.359375 0 L 5.984375 0 L 5.984375 -16.671875 L 1.359375 -16.671875 Z M 1.359375 0 "/>
</g>
<g id="glyph-1-3">
<path d="M 8.640625 -4.328125 C 8.578125 -3.0625 7.75 -2.421875 6.703125 -2.421875 C 5.859375 -2.421875 5.25 -2.984375 5.25 -3.546875 C 5.25 -4.375 5.796875 -4.625 6.828125 -4.859375 C 7.453125 -5 8.078125 -5.15625 8.640625 -5.4375 Z M 13.078125 -7.6875 C 13.078125 -10.015625 13.125 -12.421875 7.328125 -12.421875 C 5.90625 -12.421875 4.375 -12.28125 3.203125 -11.71875 C 2.015625 -11.171875 1.171875 -10.15625 1.09375 -8.453125 L 5.390625 -8.453125 C 5.421875 -8.96875 5.703125 -9.6875 7.125 -9.6875 C 7.875 -9.6875 8.640625 -9.390625 8.640625 -8.578125 C 8.640625 -7.796875 8.015625 -7.609375 7.375 -7.5 C 5.015625 -7.046875 0.53125 -7.1875 0.53125 -3.359375 C 0.53125 -0.8125 2.46875 0.296875 4.8125 0.296875 C 6.3125 0.296875 7.734375 -0.015625 8.71875 -1.140625 L 8.765625 -1.140625 C 8.734375 -0.8125 8.8125 -0.328125 8.921875 0 L 13.640625 0 C 13.125 -0.765625 13.078125 -1.796875 13.078125 -2.703125 Z M 13.078125 -7.6875 "/>
</g>
<g id="glyph-1-4">
<path d="M 5.1875 -7.421875 C 5.390625 -8.734375 6.1875 -9.453125 7.5625 -9.453125 C 8.765625 -9.453125 9.59375 -8.546875 9.59375 -7.421875 Z M 14.03125 -5.015625 C 14.03125 -9.734375 11.953125 -12.421875 7.140625 -12.421875 C 3.3125 -12.421875 0.75 -9.546875 0.75 -6.03125 C 0.75 -1.984375 3.671875 0.296875 7.546875 0.296875 C 10.296875 0.296875 12.84375 -0.90625 13.78125 -3.53125 L 9.453125 -3.53125 C 9.09375 -2.9375 8.265625 -2.65625 7.515625 -2.65625 C 6.078125 -2.65625 5.28125 -3.640625 5.15625 -5.015625 Z M 14.03125 -5.015625 "/>
</g>
<g id="glyph-1-5">
</g>
<g id="glyph-1-6">
<path d="M 1.328125 0 L 8.765625 0 C 14.578125 0 17.28125 -3.25 17.28125 -8.359375 C 17.28125 -12.5625 15.328125 -16.671875 9.765625 -16.671875 L 1.328125 -16.671875 Z M 6.46875 -12.40625 L 8.109375 -12.40625 C 11.8125 -12.40625 12.140625 -9.484375 12.140625 -8.4375 C 12.140625 -6.875 11.671875 -4.28125 8.484375 -4.28125 L 6.46875 -4.28125 Z M 6.46875 -12.40625 "/>
</g>
<g id="glyph-1-7">
<path d="M 13.875 -12.125 L 9.25 -12.125 L 9.25 -5.71875 C 9.25 -3.78125 8.203125 -3.390625 7.40625 -3.390625 C 6.046875 -3.390625 5.890625 -4.375 5.890625 -5.765625 L 5.890625 -12.125 L 1.265625 -12.125 L 1.265625 -3.8125 C 1.265625 -1.03125 3.25 0.296875 5.421875 0.296875 C 7.265625 0.296875 8.5 -0.328125 9.359375 -1.546875 L 9.40625 -1.546875 L 9.40625 0 L 13.875 0 Z M 8.25 -13.40625 L 12.21875 -13.40625 L 12.21875 -16.4375 L 8.25 -16.4375 Z M 2.9375 -13.40625 L 6.921875 -13.40625 L 6.921875 -16.4375 L 2.9375 -16.4375 Z M 2.9375 -13.40625 "/>
</g>
<g id="glyph-1-8">
<path d="M 9.78125 -6.078125 C 9.78125 -4.625 9.40625 -3.0625 7.75 -3.0625 C 6.09375 -3.0625 5.71875 -4.625 5.71875 -6.078125 C 5.71875 -7.5 6.09375 -9.0625 7.75 -9.0625 C 9.40625 -9.0625 9.78125 -7.5 9.78125 -6.078125 Z M 1.265625 0 L 5.71875 0 L 5.71875 -1.328125 L 5.765625 -1.328125 C 6.359375 -0.5625 7.046875 0.296875 9.328125 0.296875 C 12.75 0.296875 14.40625 -3.078125 14.40625 -6.125 C 14.40625 -8.96875 13.3125 -12.421875 9.25 -12.421875 C 7.875 -12.421875 6.640625 -11.8125 5.9375 -10.796875 L 5.890625 -10.796875 L 5.890625 -16.671875 L 1.265625 -16.671875 Z M 1.265625 0 "/>
</g>
<g id="glyph-1-9">
<path d="M 1.265625 0 L 5.890625 0 L 5.890625 -6.40625 C 5.890625 -8.34375 6.9375 -8.734375 7.734375 -8.734375 C 9.09375 -8.734375 9.25 -7.75 9.25 -6.359375 L 9.25 0 L 13.875 0 L 13.875 -8.3125 C 13.875 -11.09375 11.890625 -12.421875 9.71875 -12.421875 C 7.875 -12.421875 6.640625 -11.796875 5.765625 -10.578125 L 5.71875 -10.578125 L 5.71875 -12.125 L 1.265625 -12.125 Z M 1.265625 0 "/>
</g>
<g id="glyph-1-10">
<path d="M 13.875 -16.671875 L 9.25 -16.671875 L 9.25 -10.796875 L 9.203125 -10.796875 C 8.5 -11.8125 7.265625 -12.421875 5.890625 -12.421875 C 1.828125 -12.421875 0.71875 -8.96875 0.71875 -6.125 C 0.71875 -3.078125 2.375 0.296875 5.8125 0.296875 C 8.078125 0.296875 8.78125 -0.5625 9.359375 -1.328125 L 9.40625 -1.328125 L 9.40625 0 L 13.875 0 Z M 9.40625 -6.078125 C 9.40625 -4.625 9.046875 -3.0625 7.375 -3.0625 C 5.71875 -3.0625 5.34375 -4.625 5.34375 -6.078125 C 5.34375 -7.5 5.71875 -9.0625 7.375 -9.0625 C 9.046875 -9.0625 9.40625 -7.5 9.40625 -6.078125 Z M 9.40625 -6.078125 "/>
</g>
<g id="glyph-1-11">
<path d="M 13.96875 -6.078125 C 13.96875 -9.4375 11.90625 -12.421875 7.359375 -12.421875 C 2.796875 -12.421875 0.75 -9.4375 0.75 -6.078125 C 0.75 -2.703125 2.796875 0.296875 7.359375 0.296875 C 11.90625 0.296875 13.96875 -2.703125 13.96875 -6.078125 Z M 9.34375 -6.078125 C 9.34375 -4.78125 9.109375 -3.0625 7.359375 -3.0625 C 5.609375 -3.0625 5.375 -4.78125 5.375 -6.078125 C 5.375 -7.359375 5.609375 -9.0625 7.359375 -9.0625 C 9.109375 -9.0625 9.34375 -7.359375 9.34375 -6.078125 Z M 9.34375 -6.078125 "/>
</g>
<g id="glyph-1-12">
<path d="M 1.265625 0 L 5.890625 0 L 5.890625 -4.78125 C 5.890625 -7.375 6.875 -8.453125 8.6875 -8.453125 C 9.625 -8.453125 10.046875 -8.3125 10.515625 -8.15625 L 10.515625 -12.234375 C 10.0625 -12.359375 9.625 -12.421875 9.15625 -12.421875 C 7.46875 -12.421875 6.5 -11.640625 5.75 -10.1875 L 5.703125 -10.1875 L 5.703125 -12.125 L 1.265625 -12.125 Z M 1.265625 0 "/>
</g>
<g id="glyph-1-13">
<path d="M 2.03125 0 L 6.65625 0 L 6.65625 -9.28125 L 9 -9.28125 L 9 -12.125 L 6.5625 -12.125 C 6.5 -13.25 6.875 -13.578125 7.984375 -13.578125 C 8.359375 -13.578125 8.734375 -13.453125 9.109375 -13.40625 L 9.109375 -16.578125 C 8.40625 -16.609375 7.734375 -16.671875 7.03125 -16.671875 C 5.15625 -16.671875 4 -16.53125 2.984375 -15.53125 C 2.109375 -14.640625 1.984375 -13.3125 2.03125 -12.125 L 0.140625 -12.125 L 0.140625 -9.28125 L 2.03125 -9.28125 Z M 2.03125 0 "/>
</g>
</g>
<clipPath id="clip-0">
<path clip-rule="nonzero" d="M 1.285156 0 L 33 0 L 33 42.042969 L 1.285156 42.042969 Z M 1.285156 0 "/>
</clipPath>
</defs>
<g clip-path="url(#clip-0)">
<path fill-rule="nonzero" fill="rgb(100%, 100%, 100%)" fill-opacity="1" d="M 22.011719 4.972656 C 21.890625 5.222656 21.679688 5.539062 21.449219 5.648438 C 21.8125 5.710938 22.421875 5.835938 22.875 5.789062 C 23.441406 5.726562 23.78125 5.207031 23.480469 4.679688 C 23.457031 4.644531 23.46875 4.539062 23.605469 4.613281 C 24.304688 4.988281 24.160156 6 23.433594 6.261719 C 22.734375 6.507812 21.871094 6.136719 21.257812 6.035156 C 21.351562 6.199219 21.414062 6.40625 21.425781 6.523438 C 21.597656 6.570312 22.023438 6.691406 22.007812 6.847656 C 21.945312 7.328125 21.851562 7.902344 21.652344 8.34375 C 21.472656 8.742188 21.152344 9.199219 20.757812 9.25 C 20.835938 7.878906 19.300781 8.824219 18.433594 8.542969 C 18.355469 9.515625 19.894531 9.773438 21.535156 10.472656 C 22.394531 10.839844 23.230469 11.289062 23.789062 12.132812 C 24.441406 11.644531 24.992188 11.347656 25.855469 10.914062 C 26.175781 10.75 26.476562 10.601562 26.539062 10.296875 C 26.585938 10.054688 26.558594 9.417969 26.507812 9.039062 C 26.25 7.136719 28.113281 6.089844 29.367188 7.054688 C 29.332031 7.113281 29.296875 7.199219 29.285156 7.289062 C 29.675781 7.390625 30.085938 7.636719 30.347656 7.890625 C 30.265625 7.984375 30.203125 8.082031 30.164062 8.195312 C 30.476562 8.328125 30.882812 8.664062 31.015625 9 C 30.859375 9.136719 30.675781 9.414062 30.609375 9.550781 C 30.375 10.039062 30.371094 10.660156 30.265625 11.214844 C 30.175781 11.703125 29.988281 12.242188 29.675781 12.609375 C 28.996094 13.40625 27.59375 13.851562 26.90625 14.691406 C 26.667969 14.980469 26.667969 15.597656 27.074219 15.742188 C 26.6875 16.230469 26.035156 16.304688 25.613281 16.257812 C 25.6875 16.5625 26.03125 16.730469 26.207031 16.75 C 25.621094 17.910156 24.585938 17.328125 24.082031 17.644531 C 24.035156 17.796875 23.996094 17.886719 23.953125 17.988281 C 24.804688 18.132812 25.707031 18.433594 26.222656 18.640625 C 26.671875 18.820312 27.359375 19.222656 27.996094 18.988281 C 28.386719 18.847656 28.757812 18.449219 29.113281 18.183594 C 29.582031 17.832031 30.101562 17.429688 31.089844 17.546875 C 31.964844 17.648438 32.890625 18.476562 32.8125 19.828125 C 32.714844 19.816406 32.632812 19.816406 32.558594 19.828125 C 32.601562 20.035156 32.652344 20.492188 32.613281 20.765625 C 32.480469 20.746094 32.378906 20.757812 32.304688 20.769531 C 32.324219 21.019531 32.253906 21.535156 32.082031 21.839844 C 31.832031 21.753906 31.453125 21.695312 31.125 21.800781 C 30.199219 22.097656 29.585938 23.085938 28.121094 22.964844 C 27.777344 22.9375 27.332031 22.859375 26.988281 22.78125 C 26.660156 22.707031 26.1875 22.53125 25.960938 22.566406 C 25.699219 22.601562 25.683594 22.769531 25.632812 23.054688 C 24.984375 22.949219 24.601562 22.585938 24.503906 22.21875 C 24.214844 22.425781 24.238281 22.792969 24.234375 23.125 C 23.671875 23.074219 23.164062 22.871094 22.882812 22.46875 C 22.683594 22.871094 22.15625 23.257812 21.546875 23.242188 C 21.582031 22.988281 21.539062 22.582031 21.265625 22.320312 C 20.894531 22.773438 20.480469 23.113281 19.882812 23.535156 C 20.996094 24.089844 22.25 24.8125 23.335938 25.738281 C 24.328125 26.582031 25.5 27.914062 25.5625 29.269531 C 25.628906 30.730469 24.570312 31.574219 23.71875 32.199219 C 22.878906 32.816406 22.175781 33.3125 21.375 33.847656 C 21.300781 33.894531 21.304688 33.933594 21.324219 33.992188 C 21.519531 34.546875 21.804688 35.09375 22.125 35.5 C 22.304688 35.730469 22.667969 36.15625 23.03125 36.167969 C 23.585938 36.183594 24.378906 35.679688 25.019531 35.601562 C 26.410156 35.425781 27.421875 36.585938 26.976562 38.09375 C 26.890625 38.050781 26.769531 38.03125 26.691406 38.042969 C 26.703125 38.492188 26.550781 38.96875 26.421875 39.230469 C 26.308594 39.15625 26.179688 39.117188 26.089844 39.105469 C 26.019531 39.476562 25.8125 39.976562 25.554688 40.226562 C 25.371094 40.070312 25.082031 39.984375 24.914062 39.964844 C 22.929688 39.882812 22.015625 40.144531 21.308594 39.691406 C 21.082031 39.546875 20.832031 39.15625 20.628906 38.890625 C 20.417969 38.617188 20.183594 38.191406 19.960938 38.136719 C 19.683594 38.066406 19.511719 38.175781 19.371094 38.316406 C 19.175781 38.074219 19.050781 37.695312 19.105469 37.382812 C 18.851562 37.316406 18.542969 37.535156 18.367188 37.707031 C 18.152344 37.417969 18.027344 36.882812 18.097656 36.4375 C 17.753906 36.359375 17.417969 36.585938 17.230469 36.804688 C 16.894531 36.257812 16.964844 35.660156 17.167969 35.320312 C 16.703125 35.226562 16.296875 34.90625 16.136719 34.457031 C 16.925781 34.125 17.039062 33.621094 17.296875 33.058594 C 17.644531 32.320312 19.84375 32.238281 20.074219 31.195312 C 20.148438 30.859375 20.039062 30.429688 19.917969 30.207031 C 19.328125 29.117188 17.457031 28.777344 15.851562 28.789062 C 15.789062 29.6875 15.691406 30.460938 15.515625 31.128906 C 15.34375 31.753906 15.0625 32.359375 14.667969 32.796875 C 14.140625 33.382812 13.21875 33.710938 12.382812 33.957031 C 11.539062 34.207031 10.800781 34.371094 9.917969 34.574219 C 9.769531 34.589844 9.988281 36.085938 10.441406 37.050781 C 10.691406 37.578125 10.78125 37.859375 11.222656 37.792969 C 11.773438 37.710938 12.523438 37.34375 13.21875 37.371094 C 14.632812 37.421875 15.625 38.914062 14.847656 40.4375 C 14.753906 40.386719 14.6875 40.351562 14.609375 40.335938 C 14.554688 40.679688 14.410156 41.019531 14.265625 41.246094 C 14.148438 41.164062 14.0625 41.128906 13.949219 41.09375 C 13.808594 41.523438 13.527344 41.882812 13.285156 42.042969 C 13.109375 41.867188 12.871094 41.703125 12.527344 41.691406 C 10.390625 41.613281 9.464844 41.921875 8.597656 41.136719 C 8.3125 40.882812 8.089844 40.460938 7.902344 40.03125 C 7.539062 39.195312 7.253906 38.734375 6.628906 39.347656 C 6.371094 38.960938 6.34375 38.476562 6.511719 38.15625 C 6.230469 38.066406 5.851562 38.191406 5.625 38.300781 C 5.398438 37.90625 5.429688 37.257812 5.671875 36.9375 C 5.085938 36.882812 4.527344 36.398438 4.417969 35.753906 C 4.753906 35.765625 5.175781 35.585938 5.414062 35.355469 C 4.867188 35.242188 4.433594 34.773438 4.304688 34.144531 C 4.664062 34.144531 5.074219 34.0625 5.304688 33.886719 C 5.824219 33.484375 5.660156 32.671875 6.464844 32.40625 C 7.429688 32.085938 9.316406 32.519531 9.371094 31.320312 C 9.394531 30.820312 9.027344 29.867188 8.867188 29.269531 C 8.703125 28.636719 8.609375 27.972656 8.609375 27.242188 C 4.15625 27.660156 2.730469 24.734375 2.859375 22.359375 C 2.960938 20.421875 3.664062 19.078125 4.796875 16.839844 C 6.191406 14.082031 7.203125 12.097656 7.117188 10.203125 C 7.078125 9.339844 6.757812 8.324219 6.113281 8.144531 C 4.875 7.796875 4.398438 9.191406 5 9.910156 C 5.203125 10.152344 5.597656 10.328125 6.066406 10.28125 C 6.082031 10.921875 5.753906 11.316406 5.296875 11.421875 C 5.453125 12.597656 4.96875 13.589844 4.125 14.046875 C 4.117188 13.914062 4.078125 13.804688 4.046875 13.675781 C 3.4375 14.144531 2.132812 14.640625 1.285156 14.070312 C 1.535156 13.789062 1.664062 13.640625 1.824219 13.421875 C 2.15625 12.96875 2.433594 12.425781 2.472656 11.800781 C 2.511719 11.148438 2.542969 10.507812 2.554688 9.972656 C 2.59375 8.289062 3.722656 6.550781 5.792969 6.703125 C 7.535156 6.832031 8.523438 8.246094 8.613281 10.136719 C 8.714844 12.320312 7.605469 14.824219 6.101562 18.320312 C 5.503906 19.710938 4.949219 21.15625 4.992188 22.269531 C 5.050781 23.640625 5.972656 24.601562 7.273438 24.632812 C 8.070312 24.652344 9.050781 24.273438 9.460938 23.855469 C 9.519531 23.800781 9.574219 23.71875 9.796875 23.410156 C 10.792969 22.042969 12.832031 21.15625 12.949219 19 C 12.269531 19.207031 11.390625 18.789062 11.242188 18.292969 C 11.851562 18.066406 12.285156 17.578125 12.136719 16.320312 C 12.125 16.203125 12.109375 16.035156 12.101562 15.890625 C 11.765625 15.945312 11.492188 16.183594 11.332031 16.441406 C 10.226562 15.308594 10.796875 13.859375 11.171875 12.855469 C 10.324219 12.898438 9.640625 12.25 9.554688 11.675781 C 9.964844 11.621094 10.222656 11.324219 10.210938 10.964844 C 10.203125 10.667969 9.996094 10.21875 9.832031 9.863281 C 9.363281 8.851562 8.910156 7.832031 8.9375 6.453125 C 8.328125 6.167969 8.058594 5.460938 8.078125 4.902344 C 8.597656 4.867188 8.96875 4.621094 8.988281 4.289062 C 9 4.023438 9.042969 3.53125 9.15625 3.207031 C 8.953125 3.011719 8.636719 2.421875 8.949219 1.730469 C 9.171875 1.78125 9.519531 1.789062 9.734375 1.675781 C 9.824219 1.625 10.007812 1.304688 10.3125 1.082031 C 10.269531 0.867188 10.308594 0.382812 10.550781 0.078125 C 10.699219 0.144531 10.945312 0.210938 11.179688 0.234375 C 12.210938 0.339844 14.664062 -0.382812 16.472656 0.292969 C 16.851562 0.433594 17.171875 0.648438 17.40625 0.882812 C 17.765625 0.921875 18.21875 1 18.664062 1.097656 C 19.550781 1.292969 19.535156 1.453125 19.863281 1.515625 C 20 1.542969 20.371094 1.570312 20.742188 1.601562 C 21.136719 1.632812 22.277344 1.839844 22.503906 2.082031 C 22.707031 2.300781 22.496094 2.699219 22.507812 3.132812 C 22.519531 3.53125 22.722656 4.238281 22.449219 4.714844 C 22.359375 4.867188 22.183594 4.945312 22.011719 4.972656 M 14.890625 0.5 C 13.070312 0.445312 12.433594 0.730469 11.316406 0.777344 C 11.101562 0.773438 10.929688 0.714844 10.867188 0.683594 C 10.8125 0.808594 10.792969 1.117188 10.863281 1.261719 C 10.246094 1.628906 10.175781 2.339844 9.367188 2.210938 C 9.3125 2.433594 9.449219 2.734375 9.605469 2.84375 C 9.6875 2.8125 9.859375 2.753906 9.832031 2.835938 C 9.507812 3.757812 9.570312 4.148438 9.488281 4.613281 C 9.4375 4.890625 9.042969 5.144531 8.679688 5.214844 C 8.652344 5.460938 8.8125 5.828125 9.15625 5.890625 C 9.363281 5.472656 9.667969 5.410156 9.617188 5.535156 C 9.527344 5.746094 9.457031 6.125 9.449219 6.394531 C 9.425781 7.304688 9.660156 8.226562 9.953125 8.898438 C 10.519531 10.214844 11.226562 11.261719 10.246094 11.878906 C 10.375 12.183594 11.007812 12.394531 11.476562 12.207031 C 11.671875 11.703125 11.546875 11.320312 11.523438 11.195312 C 11.515625 11.152344 11.558594 11.144531 11.605469 11.179688 C 11.890625 11.417969 11.910156 11.890625 11.851562 12.261719 C 11.707031 13.25 10.859375 14.46875 11.445312 15.617188 C 11.621094 15.460938 11.890625 15.328125 12.136719 15.277344 C 12.179688 14.675781 12.371094 14.253906 12.71875 14 C 12.925781 13.851562 12.960938 13.945312 12.902344 14.007812 C 12.472656 14.53125 12.5 15.515625 12.617188 16.402344 C 12.761719 17.503906 12.410156 18.152344 12.078125 18.328125 C 12.488281 18.582031 13.171875 18.425781 13.523438 18.246094 C 13.78125 18.113281 14.179688 17.785156 14.332031 17.480469 C 13.941406 16.820312 13.917969 16.199219 14.015625 15.800781 C 14.097656 15.476562 14.28125 15.359375 14.25 15.519531 C 14 16.910156 15.332031 17.550781 15.304688 18.90625 C 15.996094 18.679688 16.296875 17.851562 16.242188 17.074219 C 16.253906 16.96875 16.335938 17.019531 16.375 17.125 C 16.769531 18.234375 16.058594 19.78125 14.734375 19.648438 C 14.917969 18.992188 14.703125 18.222656 14.511719 17.847656 C 14.339844 18.195312 14.019531 18.484375 13.714844 18.65625 C 13.671875 19.003906 13.59375 19.304688 13.53125 19.558594 C 13.316406 20.464844 12.933594 21.097656 12.363281 21.679688 C 11.117188 22.945312 10.652344 23.046875 9.839844 24.222656 C 9.660156 24.402344 9.121094 24.691406 8.8125 24.8125 C 6.34375 25.78125 4.277344 24.46875 4.441406 21.84375 C 4.507812 20.789062 5.0625 19.398438 5.503906 18.394531 C 6.796875 15.460938 8.011719 13.007812 8.167969 10.769531 C 8.296875 8.929688 7.5 7.09375 5.570312 7.074219 C 4.261719 7.0625 2.996094 8.128906 2.96875 10.269531 C 2.953125 11.53125 2.980469 12.480469 2.4375 13.34375 C 2.320312 13.527344 2.265625 13.617188 2.109375 13.816406 C 2.859375 13.941406 3.652344 13.519531 4.179688 12.917969 C 4.230469 13.007812 4.3125 13.148438 4.347656 13.289062 C 4.902344 12.757812 4.992188 11.785156 4.785156 11.011719 C 5.148438 11.117188 5.472656 10.898438 5.601562 10.59375 C 4.765625 10.480469 4.207031 9.695312 4.339844 8.828125 C 4.417969 8.320312 4.871094 7.761719 5.488281 7.6875 C 7.097656 7.5 7.570312 9.117188 7.546875 10.65625 C 7.519531 12.597656 6.335938 14.75 5.285156 16.929688 C 4.441406 18.6875 3.484375 20.46875 3.386719 22.132812 C 3.277344 23.984375 4.128906 27.289062 8.769531 26.574219 C 8.957031 26.039062 9.183594 25.828125 9.324219 25.890625 C 9.367188 25.914062 9.335938 25.996094 9.308594 26.171875 C 9.226562 26.742188 9.199219 27.09375 9.226562 27.703125 C 9.28125 28.902344 9.804688 30.097656 9.867188 30.964844 C 9.964844 32.335938 9.253906 32.492188 8.125 32.617188 C 7.648438 32.671875 6.945312 32.65625 6.511719 32.859375 C 6.261719 32.980469 6.097656 33.597656 5.851562 33.90625 C 5.613281 34.214844 5.28125 34.367188 4.878906 34.445312 C 5 34.753906 5.417969 34.976562 5.871094 34.988281 C 6.039062 34.863281 6.21875 34.574219 6.292969 34.226562 C 6.308594 34.152344 6.398438 34.101562 6.390625 34.371094 C 6.363281 35.09375 5.695312 35.878906 4.945312 35.988281 C 5.082031 36.332031 5.613281 36.59375 6.027344 36.542969 C 6.351562 36.371094 6.609375 36.066406 6.726562 35.632812 C 6.757812 35.507812 6.835938 35.566406 6.832031 35.726562 C 6.820312 36.15625 6.597656 36.507812 6.304688 36.777344 C 6.011719 37.042969 5.820312 37.402344 5.917969 37.820312 C 6.109375 37.722656 6.484375 37.703125 6.765625 37.765625 C 6.910156 37.632812 7.109375 37.410156 7.167969 37.089844 C 7.1875 36.984375 7.296875 37.007812 7.277344 37.257812 C 7.230469 37.855469 6.738281 38.128906 6.863281 38.695312 C 8.042969 38.132812 8.171875 40.214844 9.089844 40.84375 C 9.851562 41.363281 11.265625 41.050781 12.546875 41.144531 C 12.640625 40.582031 13 40.007812 13.5 39.902344 C 13.285156 39.101562 12.351562 39.128906 11.921875 39.40625 C 11.828125 39.46875 11.855469 39.347656 11.960938 39.261719 C 12.480469 38.875 13.234375 38.996094 13.59375 39.4375 C 13.683594 39.273438 13.855469 39.140625 13.996094 39.117188 C 13.628906 38.351562 12.746094 38.207031 12.105469 38.597656 C 11.992188 38.671875 12.023438 38.503906 12.230469 38.386719 C 12.992188 37.949219 13.804688 38.292969 14.164062 38.855469 C 14.234375 38.734375 14.394531 38.585938 14.515625 38.59375 C 14.304688 38.097656 13.761719 37.746094 13.070312 37.761719 C 11.863281 37.78125 10.847656 38.574219 10.410156 37.960938 C 9.914062 37.269531 9.296875 36.007812 9.246094 34.5 C 9.246094 34.375 9.253906 34.253906 9.367188 34.210938 C 10.300781 34 11.179688 33.828125 11.96875 33.574219 C 12.816406 33.300781 13.65625 33.011719 14.265625 32.304688 C 14.910156 31.554688 15.085938 29.859375 15.195312 28.484375 C 15.25 27.824219 15.3125 26.851562 15.367188 26.132812 C 15.445312 24.980469 15.691406 24.242188 16.148438 24.03125 C 16.261719 23.976562 16.320312 24.03125 16.230469 24.191406 C 16.113281 24.382812 16.019531 24.738281 15.972656 25.0625 C 16.175781 24.90625 16.4375 24.730469 16.621094 24.632812 C 17.214844 24.3125 17.613281 24.140625 18.273438 23.796875 C 18.902344 23.472656 19.5 23.039062 19.949219 22.6875 C 20.234375 22.46875 20.5625 22.203125 20.847656 21.820312 C 20.777344 21.730469 20.707031 21.609375 20.667969 21.527344 C 20.351562 21.953125 19.691406 22.308594 19.171875 22.265625 C 19.3125 21.835938 19.152344 21.230469 18.789062 20.933594 C 18.386719 20.605469 18.132812 20.421875 17.878906 20.144531 C 17.035156 19.226562 17.757812 17.285156 16.886719 16.113281 C 16.828125 15.992188 16.960938 16.027344 17.101562 16.160156 C 17.605469 16.632812 17.703125 17.363281 17.808594 18.09375 C 17.886719 18.644531 17.917969 19.300781 18.179688 19.710938 C 18.648438 20.441406 19.71875 20.601562 19.671875 21.703125 C 20.011719 21.613281 20.429688 21.289062 20.445312 21 C 20.429688 20.867188 20.363281 20.570312 20.183594 20.4375 C 20.140625 20.402344 20.167969 20.335938 20.300781 20.378906 C 20.554688 20.457031 20.675781 20.765625 20.785156 20.988281 C 20.902344 21.234375 21.023438 21.457031 21.191406 21.652344 C 21.5 22.003906 21.878906 22.183594 21.933594 22.757812 C 22.21875 22.671875 22.597656 22.375 22.632812 22 C 22.480469 21.570312 22.578125 21.171875 22.132812 20.875 C 22.070312 20.835938 22.097656 20.738281 22.34375 20.839844 C 22.914062 21.078125 22.828125 21.753906 23.105469 22.125 C 23.289062 22.371094 23.511719 22.582031 23.886719 22.664062 C 23.925781 22.316406 24.074219 21.941406 24.386719 21.742188 C 24.355469 21.546875 24.328125 21.433594 24.109375 21.261719 C 24.046875 21.21875 24.058594 21.125 24.308594 21.25 C 24.828125 21.507812 24.675781 22.242188 25.367188 22.53125 C 25.5625 21.925781 26.3125 22.136719 27.019531 22.316406 C 27.371094 22.410156 27.804688 22.515625 28.183594 22.535156 C 29.589844 22.601562 29.824219 21.664062 31.054688 21.359375 C 30.96875 20.75 31.09375 20.191406 31.488281 19.957031 C 30.972656 19.351562 30.121094 19.660156 29.832031 20.074219 C 29.769531 20.15625 29.777344 20.011719 29.875 19.871094 C 30.246094 19.316406 30.996094 19.257812 31.457031 19.523438 C 31.445312 19.332031 31.519531 19.023438 31.636719 19.015625 C 31.300781 18.640625 30.3125 18.484375 29.777344 19.128906 C 29.710938 19.199219 29.726562 19.058594 29.804688 18.945312 C 30.195312 18.417969 31.078125 18.265625 31.671875 18.710938 C 31.667969 18.585938 31.734375 18.320312 31.878906 18.3125 C 31.625 18.015625 31.125 17.84375 30.632812 17.890625 C 29.214844 18.03125 28.828125 19.582031 27.300781 19.457031 C 26.949219 19.425781 26.605469 19.203125 25.921875 18.96875 C 25.5625 18.847656 25.125 18.726562 24.726562 18.632812 C 23.632812 18.378906 22.617188 18.367188 22.054688 17.632812 C 21.863281 17.386719 21.699219 17.089844 21.636719 16.652344 C 21.601562 16.449219 21.679688 16.359375 21.738281 16.492188 C 22.074219 17.148438 22.421875 17.753906 23.253906 17.914062 C 23.597656 17.273438 23.851562 16.175781 23.808594 15.226562 C 23.445312 15.066406 23.449219 14.902344 23.332031 14.855469 C 23.382812 15.574219 23.113281 16.328125 22.886719 16.550781 C 22.78125 15.875 22.214844 15.378906 21.632812 15.21875 C 21.558594 15.199219 21.550781 15.078125 21.867188 15.101562 C 22.078125 15.113281 22.578125 15.246094 22.800781 15.535156 C 23.003906 14.839844 22.882812 14.191406 22.632812 13.558594 C 22.5 13.21875 22.179688 12.769531 21.824219 12.511719 C 21.746094 12.457031 21.78125 12.367188 22.03125 12.5 C 22.679688 12.828125 23.175781 13.476562 23.285156 14.375 C 23.628906 14.574219 23.773438 15.019531 24.253906 14.890625 C 23.839844 14.433594 24.046875 13.667969 23.398438 12.558594 C 23.054688 11.964844 22.59375 11.539062 21.816406 11.160156 C 20.859375 10.695312 19.707031 10.367188 18.964844 10.074219 C 18.191406 9.765625 17.761719 9.425781 17.660156 8.316406 C 17.402344 8.199219 17.25 8.035156 17.097656 7.84375 C 16.957031 7.964844 16.867188 8.234375 16.863281 8.410156 C 16.359375 8.167969 16.089844 7.660156 16.042969 7.21875 C 15.886719 7.238281 15.566406 8.140625 14.40625 7.710938 C 15.097656 6.992188 14.148438 6.429688 14.894531 5.574219 C 15.035156 5.402344 15.246094 5.359375 15.152344 5.488281 C 14.472656 6.453125 15.292969 6.785156 14.972656 7.417969 C 15.710938 7.484375 15.757812 6.519531 16.402344 6.535156 C 16.3125 6.960938 16.414062 7.546875 16.675781 7.726562 C 16.832031 7.457031 17.023438 7.28125 17.308594 7.171875 C 17.433594 7.699219 17.8125 7.984375 18.273438 8.085938 C 18.96875 8.238281 19.75 7.832031 20.320312 7.910156 C 20.664062 7.957031 20.972656 8.160156 21.09375 8.445312 C 21.378906 8.167969 21.636719 7.125 21.523438 7.046875 C 20.417969 6.359375 18.617188 7.832031 18.09375 6.585938 C 18 6.367188 17.957031 6.085938 17.996094 5.835938 C 18.152344 4.832031 18.820312 4.34375 20.027344 4.433594 C 20.554688 4.46875 21.714844 4.71875 22.023438 4.488281 C 22.277344 4.300781 22.210938 3.59375 22.054688 3.28125 C 21.742188 3.199219 21.378906 2.992188 21.398438 2.761719 C 21.417969 2.5625 21.609375 2.984375 22.023438 2.859375 C 22.140625 2.808594 22.203125 2.390625 22.125 2.363281 C 21.460938 2.117188 20.546875 1.960938 19.734375 2.046875 C 19.613281 2.40625 19.328125 2.441406 19.304688 2.71875 C 19.265625 3.191406 19.113281 3.578125 18.914062 3.734375 C 18.835938 3.785156 18.839844 3.707031 18.886719 3.554688 C 18.941406 3.371094 19.007812 3.066406 18.921875 2.875 C 18.738281 2.472656 17.945312 2.527344 17.925781 2.085938 C 17.914062 1.902344 18.019531 1.921875 18.804688 2.105469 C 19.136719 2.179688 19.171875 2.1875 19.21875 2.085938 C 19.347656 1.792969 18.898438 1.636719 18.503906 1.542969 C 17.308594 1.257812 16.207031 1.292969 15.742188 1.472656 C 16.214844 1.695312 16.335938 2.144531 16.1875 2.355469 C 16.082031 2.492188 16.15625 2.136719 15.625 1.820312 C 15.046875 1.472656 14.023438 1.417969 13.824219 1.695312 C 13.714844 1.851562 13.683594 2.320312 13.714844 2.53125 C 13.777344 2.898438 13.894531 3.253906 14.300781 3.523438 C 14.859375 3.894531 15.234375 3.6875 15.179688 3.808594 C 15.0625 4.058594 14.335938 4.023438 13.910156 3.6875 C 13.558594 3.410156 13.292969 3.042969 13.226562 2.519531 C 13.175781 2.144531 13.226562 1.585938 13.398438 1.386719 C 13.628906 1.113281 14.289062 1.054688 14.902344 1.171875 C 15.398438 1.023438 16.054688 0.925781 16.558594 0.960938 C 16.203125 0.671875 15.507812 0.519531 14.890625 0.5 M 18.4375 6.027344 C 19.007812 5.554688 19.835938 5.378906 21.050781 5.582031 C 21.042969 5.378906 20.925781 5.078125 20.828125 4.933594 C 19.609375 4.734375 18.460938 4.714844 18.4375 6.027344 M 21.175781 4.925781 C 21.242188 5.078125 21.285156 5.25 21.296875 5.3125 C 21.304688 5.378906 21.300781 5.4375 21.339844 5.421875 C 21.457031 5.363281 21.660156 5.097656 21.691406 4.910156 C 21.550781 4.9375 21.296875 4.933594 21.175781 4.925781 M 18.59375 6.484375 C 18.742188 6.96875 19.613281 6.507812 20.292969 6.460938 C 20.507812 6.285156 20.671875 6.109375 20.761719 5.953125 C 19.933594 5.789062 19.015625 5.894531 18.59375 6.484375 M 20.996094 6.089844 C 20.972656 6.078125 20.953125 6.132812 20.917969 6.1875 C 20.867188 6.269531 20.78125 6.386719 20.65625 6.496094 C 20.773438 6.488281 21.003906 6.503906 21.113281 6.527344 C 21.125 6.367188 21.03125 6.105469 20.996094 6.089844 M 28.890625 7.152344 C 28.664062 7.042969 28.234375 6.988281 27.9375 7.15625 C 27.84375 7.238281 27.964844 7.355469 28.242188 7.410156 C 28.457031 7.3125 28.683594 7.269531 28.871094 7.261719 C 28.871094 7.21875 28.878906 7.203125 28.890625 7.152344 M 27.554688 9.132812 C 27.402344 8.710938 27.429688 8.394531 27.597656 8.03125 C 27.679688 7.851562 27.871094 7.648438 28 7.554688 C 27.773438 7.503906 27.691406 7.386719 27.664062 7.289062 C 26.441406 7.9375 27.078125 9.191406 26.953125 10.308594 C 26.875 11.003906 25.984375 11.253906 25.398438 11.617188 C 24.894531 11.929688 24.398438 12.265625 24.050781 12.621094 C 24.683594 14.101562 24.25 14.425781 24.953125 15.140625 C 24.835938 15.285156 24.609375 15.382812 24.445312 15.382812 C 24.433594 16.011719 24.378906 16.578125 24.214844 17.140625 C 24.730469 16.933594 25.113281 17.277344 25.542969 16.863281 C 25.148438 16.566406 25.132812 16.011719 25.234375 15.703125 C 25.292969 15.523438 25.367188 15.546875 25.367188 15.59375 C 25.367188 15.683594 25.378906 15.769531 25.398438 15.824219 C 25.628906 15.882812 26.113281 15.90625 26.433594 15.699219 C 25.886719 14.765625 26.9375 13.945312 27.734375 13.429688 C 28.285156 13.074219 29.082031 12.679688 29.476562 12.152344 C 30.003906 11.441406 29.746094 10.667969 30.085938 9.613281 C 29.683594 9.414062 29.152344 9.023438 29.214844 8.457031 C 28.789062 8.511719 28.296875 9.03125 28.566406 9.90625 C 28.613281 10.058594 28.519531 10.015625 28.429688 9.871094 C 28.085938 9.230469 28.394531 8.496094 28.785156 8.28125 C 28.566406 8.140625 28.382812 7.867188 28.40625 7.722656 C 27.765625 7.949219 27.5625 8.5 27.703125 9.230469 C 27.722656 9.339844 27.632812 9.34375 27.554688 9.132812 M 29.875 8.003906 C 29.648438 7.785156 29.066406 7.519531 28.648438 7.652344 C 28.617188 7.824219 28.851562 8.046875 29.019531 8.148438 C 29.226562 8.074219 29.511719 8.039062 29.824219 8.109375 C 29.835938 8.078125 29.851562 8.046875 29.875 8.003906 M 30.5 8.9375 C 30.261719 8.566406 29.765625 8.425781 29.507812 8.449219 C 29.417969 8.8125 29.890625 9.230469 30.207031 9.347656 C 30.308594 9.117188 30.410156 9 30.5 8.9375 M 31.917969 18.886719 C 32.085938 19.0625 32.261719 19.320312 32.34375 19.546875 C 32.371094 19.539062 32.417969 19.527344 32.449219 19.527344 C 32.46875 19.226562 32.28125 18.695312 32.035156 18.480469 C 31.925781 18.453125 31.886719 18.746094 31.917969 18.886719 M 32.289062 20.417969 C 32.296875 19.996094 32.066406 19.410156 31.816406 19.195312 C 31.695312 19.214844 31.667969 19.5 31.683594 19.6875 C 31.921875 19.890625 32.078125 20.191406 32.15625 20.4375 C 32.199219 20.429688 32.25 20.417969 32.289062 20.417969 M 31.625 20.15625 C 31.273438 20.394531 31.269531 20.949219 31.332031 21.304688 C 31.519531 21.269531 31.675781 21.277344 31.839844 21.328125 C 31.949219 20.960938 31.835938 20.371094 31.625 20.15625 M 25.464844 35.992188 C 24.324219 35.878906 23.222656 36.894531 22.5 36.445312 C 22.171875 36.242188 21.734375 35.769531 21.414062 35.304688 C 21.210938 35.011719 20.644531 34.171875 20.695312 33.832031 C 20.71875 33.691406 20.945312 33.585938 21.34375 33.335938 C 22.039062 32.898438 22.664062 32.460938 23.242188 31.996094 C 23.949219 31.429688 25.035156 30.578125 25.046875 29.46875 C 25.054688 28.707031 24.546875 27.875 24.148438 27.367188 C 23.449219 26.46875 22.25 25.617188 21.109375 24.972656 C 20.605469 24.6875 19.664062 24.203125 19.082031 23.972656 C 18.503906 24.292969 18.21875 24.378906 17.730469 24.640625 C 18.089844 24.78125 18.382812 25.011719 18.324219 25.207031 C 18.289062 25.328125 18.199219 25.355469 17.769531 25.636719 C 17.519531 25.804688 17.214844 26.042969 17.070312 26.171875 C 16.753906 26.460938 16.582031 26.78125 16.316406 27.09375 C 16.152344 27.289062 16.050781 27.359375 15.886719 27.480469 C 15.882812 27.640625 15.875 27.785156 15.867188 27.988281 C 17.730469 28.042969 19.417969 28.578125 20.234375 29.613281 C 20.351562 29.761719 20.53125 30.015625 20.601562 30.207031 C 20.96875 31.175781 20.347656 31.960938 19.824219 32.304688 C 19.308594 32.644531 18.125 32.851562 17.792969 33.164062 C 17.535156 33.40625 17.511719 33.839844 17.207031 34.214844 C 17.070312 34.382812 16.910156 34.484375 16.71875 34.59375 C 16.820312 34.789062 17.21875 34.960938 17.503906 34.929688 C 17.617188 34.824219 17.726562 34.75 17.839844 34.578125 C 17.925781 34.445312 18.003906 34.238281 17.996094 34.003906 C 17.996094 33.945312 18.078125 33.882812 18.117188 34.074219 C 18.300781 35.035156 17.175781 35.148438 17.378906 36.222656 C 17.585938 36.085938 17.914062 35.925781 18.269531 36.011719 C 18.359375 35.824219 18.484375 35.714844 18.589844 35.554688 C 18.648438 35.457031 18.722656 35.308594 18.710938 35.03125 C 18.710938 34.960938 18.804688 34.933594 18.84375 35.179688 C 18.957031 35.871094 18.21875 36.046875 18.523438 37.144531 C 18.722656 36.972656 19.015625 36.898438 19.296875 36.90625 C 19.371094 36.75 19.546875 36.589844 19.503906 36.246094 C 19.496094 36.167969 19.578125 36.089844 19.640625 36.347656 C 19.765625 36.859375 19.328125 37.054688 19.550781 37.734375 C 20.328125 37.417969 20.527344 37.976562 20.875 38.417969 C 21.070312 38.667969 21.332031 39.070312 21.535156 39.226562 C 22.058594 39.625 23.519531 39.28125 24.628906 39.394531 C 24.703125 38.796875 25.09375 38.261719 25.566406 38.152344 C 25.34375 37.410156 24.355469 37.234375 23.871094 37.730469 C 23.796875 37.804688 23.84375 37.605469 23.988281 37.484375 C 24.453125 37.09375 25.289062 37.214844 25.703125 37.75 C 25.785156 37.546875 25.945312 37.371094 26.070312 37.363281 C 25.71875 36.625 24.699219 36.464844 24.140625 36.914062 C 24.097656 36.949219 24.082031 36.851562 24.234375 36.71875 C 24.667969 36.339844 25.59375 36.367188 26.140625 36.945312 C 26.179688 36.734375 26.289062 36.578125 26.398438 36.578125 C 26.246094 36.335938 25.835938 36.03125 25.464844 35.992188 M 17.261719 24.890625 C 16.6875 25.101562 15.96875 25.582031 15.949219 25.71875 C 15.902344 26.03125 15.882812 26.484375 15.882812 26.820312 C 16.253906 26.605469 16.359375 26.222656 16.78125 25.894531 C 17.539062 25.300781 17.90625 25.214844 17.867188 25.128906 C 17.777344 24.972656 17.425781 24.890625 17.261719 24.890625 M 26.691406 37.667969 C 26.738281 37.421875 26.691406 36.964844 26.558594 36.796875 C 26.46875 36.738281 26.359375 36.910156 26.3125 37.117188 C 26.417969 37.273438 26.546875 37.511719 26.574219 37.667969 C 26.613281 37.664062 26.648438 37.664062 26.691406 37.667969 M 25.859375 37.984375 C 25.960938 38.164062 26.042969 38.519531 26.046875 38.746094 C 26.101562 38.75 26.171875 38.75 26.21875 38.761719 C 26.367188 38.324219 26.316406 37.789062 26.171875 37.597656 C 26.082031 37.566406 25.925781 37.796875 25.859375 37.984375 M 24.921875 39.414062 C 25.125 39.445312 25.316406 39.527344 25.425781 39.597656 C 25.523438 39.433594 25.773438 38.777344 25.628906 38.417969 C 25.222656 38.457031 24.917969 39.125 24.921875 39.414062 M 14.660156 40.007812 C 14.804688 39.578125 14.761719 39.058594 14.609375 38.855469 C 14.570312 38.804688 14.347656 38.925781 14.304688 39.082031 C 14.429688 39.289062 14.546875 39.71875 14.535156 39.984375 C 14.574219 39.984375 14.617188 39.988281 14.660156 40.007812 M 13.769531 39.671875 C 13.90625 39.9375 13.980469 40.402344 13.941406 40.6875 C 13.992188 40.691406 14.058594 40.710938 14.113281 40.738281 C 14.226562 40.460938 14.339844 39.792969 14.089844 39.355469 C 13.972656 39.375 13.800781 39.5 13.769531 39.671875 M 12.84375 41.1875 C 12.996094 41.234375 13.160156 41.324219 13.242188 41.445312 C 13.433594 41.21875 13.695312 40.683594 13.582031 40.191406 C 13.21875 40.191406 12.886719 40.75 12.84375 41.1875 "/>
</g>
<path fill-rule="nonzero" fill="rgb(100%, 100%, 100%)" fill-opacity="1" d="M 15.847656 2.832031 C 15.792969 3.085938 15.574219 3.148438 15.570312 2.960938 C 15.570312 2.421875 15.003906 2.148438 14.402344 2.09375 C 14.242188 2.082031 14.402344 1.964844 14.566406 1.949219 C 15.140625 1.898438 15.972656 2.257812 15.847656 2.832031 "/>
<path fill-rule="nonzero" fill="rgb(100%, 100%, 100%)" fill-opacity="1" d="M 10.945312 7.632812 C 10.742188 8.78125 11.371094 8.851562 11.402344 9.699219 C 11.820312 9.777344 12.28125 9.476562 12.53125 9.082031 C 12.574219 9.015625 12.613281 9.082031 12.574219 9.226562 C 12.425781 9.820312 11.664062 10.402344 10.925781 10.148438 C 11.257812 9.375 10.296875 8.632812 10.808594 7.6875 C 10.910156 7.503906 10.960938 7.539062 10.945312 7.632812 "/>
<path fill-rule="nonzero" fill="rgb(100%, 100%, 100%)" fill-opacity="1" d="M 13.011719 10.746094 C 13.078125 10.664062 13.136719 10.683594 13.113281 10.765625 C 12.535156 12.667969 13.949219 12.804688 14.058594 14.441406 C 14.644531 14.285156 14.910156 13.8125 15.101562 13.25 C 15.148438 13.097656 15.226562 13.183594 15.21875 13.386719 C 15.195312 13.808594 15.078125 14.152344 14.941406 14.355469 C 14.699219 14.722656 14.144531 15.179688 13.445312 15.066406 C 13.890625 13.636719 12.675781 13.101562 12.671875 11.816406 C 12.671875 11.519531 12.792969 10.992188 13.011719 10.746094 "/>
<path fill-rule="nonzero" fill="rgb(100%, 100%, 100%)" fill-opacity="1" d="M 20.515625 14.171875 C 20.46875 14.105469 20.46875 13.984375 20.722656 14.214844 C 21.867188 15.253906 20.738281 17.070312 21.507812 17.96875 C 20.449219 18.378906 19.441406 17.65625 19.324219 17.039062 C 19.265625 16.734375 19.488281 17.136719 19.777344 17.328125 C 20.023438 17.492188 20.5 17.65625 20.746094 17.601562 C 20.453125 16.484375 21.363281 15.535156 20.515625 14.171875 "/>
<g fill="rgb(100%, 100%, 100%)" fill-opacity="1">
<use xlink:href="#glyph-0-0" x="62.39047" y="8.92795"/>
</g>
<g fill="rgb(100%, 100%, 100%)" fill-opacity="1">
<use xlink:href="#glyph-0-1" x="71.406857" y="8.92795"/>
</g>
<g fill="rgb(100%, 100%, 100%)" fill-opacity="1">
<use xlink:href="#glyph-0-2" x="78.42503" y="8.92795"/>
<use xlink:href="#glyph-0-3" x="85.836411" y="8.92795"/>
</g>
<g fill="rgb(100%, 100%, 100%)" fill-opacity="1">
<use xlink:href="#glyph-0-4" x="90.458397" y="8.92795"/>
<use xlink:href="#glyph-0-2" x="97.655301" y="8.92795"/>
</g>
<g fill="rgb(100%, 100%, 100%)" fill-opacity="1">
<use xlink:href="#glyph-0-5" x="105.106003" y="8.92795"/>
</g>
<g fill="rgb(100%, 100%, 100%)" fill-opacity="1">
<use xlink:href="#glyph-0-5" x="111.692839" y="8.92795"/>
</g>
<g fill="rgb(100%, 100%, 100%)" fill-opacity="1">
<use xlink:href="#glyph-0-6" x="118.212948" y="8.92795"/>
<use xlink:href="#glyph-0-7" x="125.183459" y="8.92795"/>
<use xlink:href="#glyph-0-8" x="132.594841" y="8.92795"/>
</g>
<g fill="rgb(100%, 100%, 100%)" fill-opacity="1">
<use xlink:href="#glyph-0-9" x="140.020521" y="8.92795"/>
</g>
<g fill="rgb(100%, 100%, 100%)" fill-opacity="1">
<use xlink:href="#glyph-0-10" x="143.428326" y="8.92795"/>
</g>
<g fill="rgb(100%, 100%, 100%)" fill-opacity="1">
<use xlink:href="#glyph-0-11" x="150.613315" y="8.92795"/>
<use xlink:href="#glyph-0-12" x="154.271344" y="8.92795"/>
</g>
<g fill="rgb(100%, 100%, 100%)" fill-opacity="1">
<use xlink:href="#glyph-0-3" x="162.017549" y="8.92795"/>
</g>
<g fill="rgb(100%, 100%, 100%)" fill-opacity="1">
<use xlink:href="#glyph-0-1" x="166.774178" y="8.92795"/>
</g>
<g fill="rgb(100%, 100%, 100%)" fill-opacity="1">
<use xlink:href="#glyph-0-13" x="173.766137" y="8.92795"/>
<use xlink:href="#glyph-0-10" x="181.177519" y="8.92795"/>
</g>
<g fill="rgb(100%, 100%, 100%)" fill-opacity="1">
<use xlink:href="#glyph-0-9" x="188.360124" y="8.92795"/>
</g>
<g fill="rgb(100%, 100%, 100%)" fill-opacity="1">
<use xlink:href="#glyph-0-7" x="191.794144" y="8.92795"/>
<use xlink:href="#glyph-0-4" x="199.205525" y="8.92795"/>
<use xlink:href="#glyph-0-14" x="206.40243" y="8.92795"/>
</g>
<g fill="rgb(100%, 100%, 100%)" fill-opacity="1">
<use xlink:href="#glyph-0-10" x="210.719381" y="8.92795"/>
</g>
<g fill="rgb(100%, 100%, 100%)" fill-opacity="1">
<use xlink:href="#glyph-0-2" x="217.930583" y="8.92795"/>
</g>
<g fill="rgb(100%, 100%, 100%)" fill-opacity="1">
<use xlink:href="#glyph-1-0" x="61.549569" y="29.693385"/>
</g>
<g fill="rgb(100%, 100%, 100%)" fill-opacity="1">
<use xlink:href="#glyph-1-1" x="75.348979" y="29.693385"/>
<use xlink:href="#glyph-1-2" x="81.890091" y="29.693385"/>
<use xlink:href="#glyph-1-1" x="88.431203" y="29.693385"/>
</g>
<g fill="rgb(100%, 100%, 100%)" fill-opacity="1">
<use xlink:href="#glyph-1-3" x="95.112482" y="29.693385"/>
</g>
<g fill="rgb(100%, 100%, 100%)" fill-opacity="1">
<use xlink:href="#glyph-1-2" x="108.70865" y="29.693385"/>
<use xlink:href="#glyph-1-4" x="115.249762" y="29.693385"/>
</g>
<g fill="rgb(100%, 100%, 100%)" fill-opacity="1">
<use xlink:href="#glyph-1-5" x="129.266431" y="29.693385"/>
<use xlink:href="#glyph-1-6" x="136.36821" y="29.693385"/>
</g>
<g fill="rgb(100%, 100%, 100%)" fill-opacity="1">
<use xlink:href="#glyph-1-7" x="153.886709" y="29.693385"/>
</g>
<g fill="rgb(100%, 100%, 100%)" fill-opacity="1">
<use xlink:href="#glyph-1-8" x="168.354247" y="29.693385"/>
</g>
<g fill="rgb(100%, 100%, 100%)" fill-opacity="1">
<use xlink:href="#glyph-1-4" x="182.726005" y="29.693385"/>
</g>
<g fill="rgb(100%, 100%, 100%)" fill-opacity="1">
<use xlink:href="#glyph-1-9" x="196.723984" y="29.693385"/>
</g>
<g fill="rgb(100%, 100%, 100%)" fill-opacity="1">
<use xlink:href="#glyph-1-10" x="211.158817" y="29.693385"/>
</g>
<g fill="rgb(100%, 100%, 100%)" fill-opacity="1">
<use xlink:href="#glyph-1-11" x="225.581969" y="29.693385"/>
</g>
<g fill="rgb(100%, 100%, 100%)" fill-opacity="1">
<use xlink:href="#glyph-1-12" x="239.544907" y="29.693385"/>
</g>
<g fill="rgb(100%, 100%, 100%)" fill-opacity="1">
<use xlink:href="#glyph-1-13" x="251.057264" y="29.693385"/>
</g>
<path fill="none" stroke-width="0.5" stroke-linecap="butt" stroke-linejoin="miter" stroke="rgb(100%, 99.845886%, 97.000122%)" stroke-opacity="1" stroke-miterlimit="4" d="M 54.672931 29.515066 L 38.164315 29.515066 L 38.164315 13.00645 L 54.672931 13.00645 Z M 54.672931 29.515066 " transform="matrix(0.98883, 0, 0, -0.98883, 1.285409, 42.044765)"/>
<path fill-rule="nonzero" fill="rgb(100%, 100%, 100%)" fill-opacity="1" d="M 55.59375 29.429688 L 55.59375 12.613281 L 38.773438 12.613281 "/>
</svg>
